<svg xmlns="http://www.w3.org/2000/svg" id="Layer_1" data-name="Layer 1" viewBox="0 0 348.181 279.694"><defs><style>.cls-1{fill:#ff4081}.cls-2{fill:#aeea00}.cls-3{fill:#03a9f4}</style></defs><title>broken-heart</title><rect width="28.061" height="28.061" x="35.398" class="cls-1"/><rect width="28.061" height="28.061" x="70.796" class="cls-1"/><rect width="28.061" height="28.061" x="106.194" class="cls-1"/><rect width="28.061" height="28.061" x="213.157" class="cls-1"/><rect width="28.061" height="28.061" x="248.555" class="cls-1"/><rect width="28.061" height="28.061" x="283.953" class="cls-1"/><rect width="28.061" height="28.061" y="36.167" class="cls-1"/><rect width="28.061" height="28.061" x="35.398" y="36.167" class="cls-1"/><rect width="28.061" height="28.061" x="70.796" y="36.167" class="cls-1"/><rect width="28.061" height="28.061" x="106.194" y="36.167" class="cls-1"/><rect width="28.061" height="28.061" x="177.759" y="36.167" class="cls-1"/><rect width="28.061" height="28.061" x="213.157" y="36.167" class="cls-1"/><rect width="28.061" height="28.061" x="248.555" y="36.167" class="cls-1"/><rect width="28.061" height="28.061" x="283.953" y="36.167" class="cls-1"/><rect width="28.061" height="28.061" x="320.12" y="36.167" class="cls-1"/><rect width="28.061" height="28.061" y="72.335" class="cls-1"/><rect width="28.061" height="28.061" x="35.398" y="72.335" class="cls-1"/><rect width="28.061" height="28.061" x="70.796" y="72.335" class="cls-1"/><rect width="28.061" height="28.061" x="142.361" y="72.335" class="cls-1"/><rect width="28.061" height="28.061" x="177.759" y="72.335" class="cls-1"/><rect width="28.061" height="28.061" x="213.157" y="72.335" class="cls-1"/><rect width="28.061" height="28.061" x="248.555" y="72.335" class="cls-1"/><rect width="28.061" height="28.061" x="283.953" y="72.335" class="cls-1"/><rect width="28.061" height="28.061" x="320.12" y="72.335" class="cls-1"/><rect width="28.061" height="28.061" y="107.733" class="cls-2"/><rect width="28.061" height="28.061" x="35.398" y="107.733" class="cls-2"/><rect width="28.061" height="28.061" x="70.796" y="107.733" class="cls-2"/><rect width="28.061" height="28.061" x="142.361" y="107.733" class="cls-2"/><rect width="28.061" height="28.061" x="177.759" y="107.733" class="cls-2"/><rect width="28.061" height="28.061" x="213.157" y="107.733" class="cls-2"/><rect width="28.061" height="28.061" x="248.555" y="107.733" class="cls-2"/><rect width="28.061" height="28.061" x="283.953" y="107.733" class="cls-2"/><rect width="28.061" height="28.061" x="320.12" y="107.733" class="cls-2"/><rect width="28.061" height="28.061" x="35.398" y="143.9" class="cls-2"/><rect width="28.061" height="28.061" x="70.796" y="143.9" class="cls-2"/><rect width="28.061" height="28.061" x="106.194" y="143.9" class="cls-2"/><rect width="28.061" height="28.061" x="177.759" y="143.9" class="cls-2"/><rect width="28.061" height="28.061" x="213.157" y="143.9" class="cls-2"/><rect width="28.061" height="28.061" x="248.555" y="143.9" class="cls-2"/><rect width="28.061" height="28.061" x="283.953" y="143.9" class="cls-2"/><rect width="28.061" height="28.061" x="70.796" y="180.068" class="cls-3"/><rect width="28.061" height="28.061" x="106.194" y="180.068" class="cls-3"/><rect width="28.061" height="28.061" x="142.361" y="180.068" class="cls-3"/><rect width="28.061" height="28.061" x="213.157" y="180.068" class="cls-3"/><rect width="28.061" height="28.061" x="248.555" y="180.068" class="cls-3"/><rect width="28.061" height="28.061" x="106.194" y="215.466" class="cls-3"/><rect width="28.061" height="28.061" x="177.759" y="215.466" class="cls-3"/><rect width="28.061" height="28.061" x="213.157" y="215.466" class="cls-3"/><rect width="28.061" height="28.061" x="177.759" y="251.633" class="cls-3"/></svg>